<?xml version="1.0" encoding="utf-8"?>
<!-- Generator: Adobe Illustrator 19.0.0, SVG Export Plug-In . SVG Version: 6.00 Build 0)  -->
<svg version="1.1" id="Layer_1" xmlns="http://www.w3.org/2000/svg" xmlns:xlink="http://www.w3.org/1999/xlink" x="0px" y="0px"
	 viewBox="0 0 244.5 285.5" style="enable-background:new 0 0 244.5 285.5;" xml:space="preserve">
<style type="text/css">
	.st0{fill:#F5F8FA;}
</style>
<g id="XMLID_20_">
	<path id="XMLID_79_" class="st0" d="M31.2,243.7c-0.4,0-1,0-1.6-0.2c-0.8-0.2-2-0.9-3.4-4.4c-2.4-6.1-8.7-22.6-9.3-24.1
		c-0.5-1.2-0.6-1.4-0.9-1.4s-0.4,0.2-0.9,1.6L6,239.8c-0.7,2-1.5,3.5-3.4,3.8c-0.3,0-0.9,0.1-1.2,0.1c-0.2,0-0.4,0.1-0.4,0.2
		c0,0.2,0.2,0.3,0.8,0.3c1.9,0,4.1-0.1,4.5-0.1c0.4,0,2.2,0.1,3.1,0.1c0.4,0,0.6-0.3,0.6-0.5c0-0.2-0.1-0.5-0.4-0.5H9.3
		c-0.7,0-1.5-0.1-1.5-0.9c0-0.7,0.2-1.6,0.6-2.6l2.4-7.1c0.1-0.2,0.2-0.4,0.4-0.4h8.6c0.2,0,0.3,0.2,0.4,0.3l3.7,9.9
		c0.2,0.6,0,1-0.2,1.1c-0.2,0-0.3,0.1-0.3,0.3c0,0.2,0.4,0.2,1.2,0.3c2.8,0.1,5.7,0.1,6.3,0.1c0.4,0,0.8-0.1,0.8-0.3
		C31.6,243.7,31.4,243.7,31.2,243.7z M19.2,231.2h-7.6c-0.1,0-0.2-0.2-0.1-0.4L15,220c0.2-0.6,0.4-0.6,0.6,0l3.8,10.9
		C19.4,231,19.4,231.2,19.2,231.2z"/>
	<path id="XMLID_80_" class="st0" d="M43.5,215.7v16.9c0,3.8,0.1,7-0.1,8.7c-0.2,1.2-0.3,2-1.1,2.2c-0.4,0.1-0.8,0.2-1.2,0.2
		c-0.2,0-0.3,0.1-0.3,0.2c0,0.2,0.2,0.3,0.6,0.3c1.2,0,3.7-0.1,3.9-0.1c0.2,0,2.7,0.1,4.9,0.1c0.4,0,0.6-0.1,0.6-0.3
		c0-0.1-0.1-0.2-0.3-0.2c-0.4,0-1.2-0.1-1.8-0.2c-1.2-0.2-1.7-1-1.8-2.2c-0.2-1.7-0.4-4.8-0.4-8.7v-16.9l5.3,0.1
		c3.8,0.1,4.9,1,5,2.2l0.1,0.4c0,0.6,0.2,0.7,0.4,0.7c0.2,0,0.3-0.2,0.3-0.5c0-0.4,0.1-3.2,0.1-4.4c0-0.2,0-0.5-0.2-0.5
		c-0.2,0-0.5,0.2-1.1,0.3c-0.6,0.1-1.6,0.3-2.8,0.3h-15c-0.5,0-2-0.1-3.2-0.3c-1.1-0.1-1.5-0.5-1.8-0.5c-0.2,0-0.3,0.5-0.4,0.7
		c-0.1,0.3-0.9,3.8-0.9,4.2c0,0.2,0.1,0.4,0.2,0.4c0.2,0,0.3-0.1,0.4-0.4c0.1-0.3,0.2-0.6,0.7-1.2c0.6-1,1.5-1.2,4-1.3L43.5,215.7z"
		/>
	<path id="XMLID_81_" class="st0" d="M70.1,241.3c-0.2,1.2-0.5,2-1.3,2.2c-0.4,0.1-0.9,0.2-1.2,0.2c-0.2,0-0.3,0.1-0.3,0.2
		c0,0.2,0.2,0.3,0.6,0.3c0.6,0,1.5,0,2.3-0.1c0.8,0,1.5,0,1.6,0c1.2,0,2.4,0,4.1,0.1c1.7,0,3.8,0.1,6.6,0.1c2.1,0,2.2-0.2,2.5-1.1
		c0.3-1.2,0.6-3.6,0.6-4c0-0.4,0-0.6-0.2-0.6c-0.2,0-0.3,0.2-0.4,0.5c-0.1,0.8-0.5,1.8-1,2.4c-1,1.2-2.7,1.2-4.8,1.2
		c-3.1,0-4.1-0.3-4.8-0.9c-0.7-0.7-0.9-3.3-0.9-9.2v-7.1c0-6.2,0-7.4,0.1-8.6c0.1-1.4,0.4-2.1,1.6-2.3c0.5-0.1,1-0.1,1.3-0.1
		c0.2,0,0.3-0.1,0.3-0.2c0-0.2-0.2-0.3-0.6-0.3c-1.2,0-4.1,0.1-4.3,0.1c-0.2,0-2.7-0.1-4.5-0.1c-0.4,0-0.6,0.1-0.6,0.3
		c0,0.2,0.2,0.2,0.3,0.2c0.4,0,1,0,1.4,0.1c1.3,0.3,1.8,0.9,1.9,2.3c0.1,1.3,0.3,2.4,0.3,8.6v7C70.5,236.5,70.3,239.6,70.1,241.3z"
		/>
	<path id="XMLID_88_" class="st0" d="M112.5,243.6c-0.2,0-0.3,0.1-0.3,0.3c0,0.2,0.4,0.2,1.2,0.3c2.8,0.1,5.7,0.1,6.3,0.1
		c0.4,0,0.8-0.1,0.8-0.3c0-0.2-0.2-0.2-0.4-0.2c-0.4,0-1,0-1.6-0.2c-0.8-0.2-2-0.9-3.4-4.4c-2.4-6.1-8.7-22.6-9.3-24.1
		c-0.5-1.2-0.6-1.4-0.9-1.4s-0.4,0.2-0.9,1.6l-9.1,24.8c-0.7,2-1.5,3.5-3.4,3.8c-0.3,0-0.9,0.1-1.2,0.1c-0.2,0-0.4,0.1-0.4,0.2
		c0,0.2,0.2,0.3,0.8,0.3c1.9,0,4.1-0.1,4.5-0.1c0.4,0,2.2,0.1,3.1,0.1c0.4,0,0.6-0.3,0.6-0.5c0-0.2-0.1-0.5-0.4-0.5h-0.4
		c-0.7,0-1.5-0.1-1.5-0.9c0-0.7,0.2-1.6,0.6-2.6l2.4-7.1c0.1-0.2,0.2-0.4,0.4-0.4h8.6c0.2,0,0.3,0.2,0.4,0.3l3.7,9.9
		C113,243.1,112.7,243.5,112.5,243.6z M108.1,231.2h-7.6c-0.1,0-0.2-0.2-0.1-0.4l3.5-10.9c0.2-0.6,0.4-0.6,0.6,0l3.8,10.9
		C108.3,231,108.3,231.2,108.1,231.2z"/>
	<path id="XMLID_93_" class="st0" d="M151.6,242c2.1,2.1,2.6,2.6,2.9,2.6c0.3,0,0.4-0.2,0.4-2.8l0.1-23.4c0-2.4,0.2-3.3,1.5-3.6
		c0.5-0.1,0.8-0.1,1-0.1c0.3,0,0.4-0.1,0.4-0.3c0-0.2-0.3-0.3-0.7-0.3c-1.6,0-3,0.1-3.4,0.1c-0.4,0-2.4-0.1-4.2-0.1
		c-0.5,0-0.8,0-0.8,0.3c0,0.2,0,0.3,0.3,0.3c0.3,0,1.2,0,2,0.2c1.2,0.3,1.5,1.2,1.6,3.8l0.4,20.3c-1.3-1.3-5.6-6.2-9.6-10.4
		c-6.2-6.6-12.1-13-12.7-13.7c-0.4-0.4-1.1-1.3-1.4-1.3c-0.3,0-0.4,0.4-0.4,2l0,22.9c0,3.6-0.2,4.8-1.2,5.1
		c-0.6,0.2-1.3,0.2-1.6,0.2c-0.2,0-0.3,0.1-0.3,0.2c0,0.3,0.2,0.3,0.6,0.3c1.8,0,3.5-0.1,3.8-0.1c0.4,0,2,0.1,4.2,0.1
		c0.5,0,0.7-0.1,0.7-0.3c0-0.2-0.1-0.2-0.3-0.2c-0.4,0-1.2,0-2-0.2c-1.1-0.3-1.5-1.4-1.6-4.6l-0.5-19.2c1.3,1.4,5.8,6.5,10.4,11.5
		C145.4,235.7,151.2,241.6,151.6,242z"/>
	<path id="XMLID_94_" class="st0" d="M185.6,215.8c3.8,0.1,4.8,1,4.9,2.2l0.1,0.4c0,0.6,0.1,0.7,0.3,0.7c0.2,0,0.3-0.2,0.3-0.5
		c0-0.4,0.1-3.2,0.1-4.4c0-0.2,0-0.5-0.2-0.5c-0.2,0-0.5,0.2-1.1,0.3c-0.6,0.1-1.6,0.3-2.8,0.3h-15c-0.5,0-2-0.1-3.2-0.3
		c-1.1-0.1-1.5-0.5-1.8-0.5c-0.2,0-0.3,0.5-0.4,0.7c-0.1,0.3-0.9,3.8-0.9,4.2c0,0.2,0.1,0.4,0.2,0.4c0.2,0,0.3-0.1,0.4-0.4
		c0.1-0.3,0.2-0.6,0.7-1.2c0.6-1,1.7-1.2,4.2-1.3l6-0.1v16.9c0,3.8-0.1,7-0.3,8.7c-0.2,1.2-0.4,2-1.2,2.2c-0.4,0.1-0.9,0.2-1.2,0.2
		c-0.2,0-0.3,0.1-0.3,0.2c0,0.2,0.2,0.3,0.6,0.3c1.2,0,3.7-0.1,3.9-0.1c0.2,0,2.7,0.1,4.9,0.1c0.4,0,0.6-0.1,0.6-0.3
		c0-0.1-0.1-0.2-0.3-0.2c-0.4,0-1.2-0.1-1.8-0.2c-1.2-0.2-1.5-1-1.6-2.2c-0.2-1.7-0.2-4.8-0.2-8.7v-16.9L185.6,215.8z"/>
	<path id="XMLID_95_" class="st0" d="M210.6,243.7c-0.4,0-1.2-0.1-1.8-0.2c-1.2-0.2-1.2-1-1.3-2.2c-0.2-1.7,0-4.8,0-8.7v-7
		c0-6.2-0.2-7.4-0.1-8.6c0.1-1.4,0.3-2.1,1.4-2.3c0.5-0.1,0.7-0.1,0.9-0.1c0.2,0,0.3-0.1,0.3-0.2c0-0.2-0.2-0.3-0.7-0.3
		c-1.2,0-3.7,0.1-3.9,0.1c-0.2,0-2.7-0.1-4-0.1c-0.4,0-0.6,0.1-0.6,0.3c0,0.2,0.2,0.2,0.3,0.2c0.3,0,0.8,0,1.2,0.2
		c0.9,0.2,1.2,0.9,1.3,2.2c0.1,1.3,0,2.4,0,8.6v7c0,3.8,0.1,7-0.1,8.7c-0.2,1.2-0.3,2-1.1,2.2c-0.4,0.1-0.8,0.2-1.2,0.2
		c-0.2,0-0.3,0.1-0.3,0.2c0,0.2,0.2,0.3,0.6,0.3c1.2,0,3.7-0.1,3.9-0.1c0.2,0,2.7,0.1,4.9,0.1c0.4,0,0.6-0.1,0.6-0.3
		C211,243.8,210.9,243.7,210.6,243.7z"/>
	<path id="XMLID_96_" class="st0" d="M231.7,227.1l-1.1-0.9c-3.8-3-4.9-4.4-4.9-6.7c0-2.9,2.2-4.6,4.9-4.6c3.7,0,4.8,1.7,5,2.1
		c0.2,0.4,0.5,1.5,0.5,2c0,0.3,0.1,0.5,0.3,0.5c0.2,0,0.3-0.3,0.3-0.9c0-2.7,0.2-4,0.2-4.2c0-0.2-0.1-0.3-0.4-0.3
		c-0.3,0-0.6,0-1.4-0.2c-1-0.2-2.2-0.4-3.7-0.4c-5.1,0-8.3,2.9-8.3,7.2c0,2.7,1,5.2,5.2,8.7l1.8,1.5c3.4,2.8,4.6,4.4,4.6,7.2
		c0,2.6-1.9,5.3-5.7,5.3c-2.7,0-5.3-1.1-5.9-4.1c-0.1-0.6-0.1-1.1-0.1-1.5c0-0.3,0-0.4-0.3-0.4c-0.2,0-0.3,0.2-0.3,0.6
		c0,0.6-0.2,2.2-0.2,4.2c0,1.1,0,1.2,0.6,1.5c1.6,0.8,3.5,1.1,5.4,1.1c2.2,0,4.3-0.5,6-1.7c2.8-2,3.4-5,3.4-6.6
		C237.6,233.3,236.4,230.8,231.7,227.1z"/>
	<path id="XMLID_97_" class="st0" d="M103.1,101.4c10.1,0,11.2-0.8,14.5-10.1c-5.6,0.7-11.3,1.8-17,2c-9.9,0.3-12.1,1.8-15,11.9
		c2.8-1.3,5.5-3,8.3-3.6C96.9,101,100,101.4,103.1,101.4z"/>
	<path id="XMLID_98_" class="st0" d="M144.9,102.5c3.1,0,6.2-0.4,9.1,0.3c2.9,0.6,5.5,2.3,8.3,3.6c-2.9-10.1-5.1-11.6-15-11.9
		c-5.7-0.2-11.4-1.3-17-2C133.7,101.7,134.8,102.4,144.9,102.5z"/>
	<path id="XMLID_101_" class="st0" d="M17.8,207.2c-1.9-4.6-3.5-9.4-4.8-14.1c6.9-1.2,18.6-3.4,30.5-6.7c21-5.9,33.4-12.7,37.6-20.3
		l29.4,28c3.4,3.3,7.9,5.1,12.7,5.1c4.4,0,8.7-1.6,12-4.5l30.8-26.8c5,6.8,17.1,13,36.4,18.4c11.2,3.1,22.2,5.3,29.2,6.5
		c-1.3,4.9-2.9,9.6-4.8,14.4h9.7c5.2-14,8.1-28.7,8.1-44.1c0-42.7-22-80.5-55.2-102.4c-0.3,3.7-0.6,7.3-0.8,10.4
		c28.5,20.6,47.1,54.2,47.1,91.9c0,7.5-0.7,14.8-2.2,22c-6.8-1.2-17.9-3.4-28.8-6.4c-23.3-6.6-30.4-12.6-32.5-16l1.5-1.4
		c5.8-5,9-12.3,9-20V81.2c0-0.8-0.2-1.6-0.6-2.3c0.4-7,1.6-27.6,4.2-39.1c1-1.4,3-3.5,6.7-4l-2.2-17.3L177,29.2c0,0,3.6,5.8,2.1,9.5
		l0.2,0.1c-9.2,12.3-16.9,18.4-23,17.9c-7.8-0.6-19.7-15.1-26-24.2c2.3-4.7,7.6-8.6,7.6-8.6L124.7,0l-13.5,24
		c4.6,2.8,6.4,6.7,7.1,9.3C111.9,42.2,99.9,56,92,56.7c-6.2,0.5-14-5.7-23.4-18.3c-1.2-3.7,2.2-9.1,2.2-9.1L57.2,18.6L55,35.9
		c4.6,0.7,6.6,3.7,7.3,4.9c2.4,11.8,3.6,32,3.9,38.5c-0.3,0.6-0.6,1.3-0.6,2v58.9c0,7.2,3.1,14.2,8.3,19.2l1.1,1h-0.3
		c0,2-2.4,9.7-33.2,18.4c-11.7,3.3-23.5,5.5-30.2,6.6C9.8,178.1,9,170.7,9,163.1c0-38.9,19.7-73.4,49.6-93.8
		c-0.2-3.1-0.5-6.7-0.8-10.3C23.1,80.7,0,119.4,0,163.2c0,15.4,2.9,30.1,8.1,44.1H17.8z M123.3,149.7l-2,36.1l-25.3-33.2
		c-0.7-0.9-1.3-2-1.7-3c2,0.3,4.1,0.4,6.1,0.4h0c4.4,0,8.6-0.7,12.5-1.9c4.6-1.5,8.2-4,10.3-7.2c2.1,3.1,5.7,5.7,10.3,7.2
		c3.9,1.3,8.2,1.9,12.5,1.9c2,0,4-0.1,6.1-0.4c-0.5,1.1-1,2.1-1.7,3l-25.1,32.9L123.3,149.7z M86.3,142.7c16-2.7,28.6-7.5,33.7-9.6
		c0.3,1.3,0.2,2.6-0.3,3.8c-1.1,2.7-4.3,5.2-8.3,6.5c-3.4,1.1-7.1,1.8-11,1.8c0,0,0,0,0,0C95.7,145.2,90.8,144.3,86.3,142.7z
		 M126.4,133.1c5.1,2.1,17.7,6.8,33.7,9.5c-4.5,1.6-9.3,2.4-14.1,2.4c-3.8,0-7.5-0.6-11-1.7c-4.1-1.3-7.2-3.7-8.3-6.4
		C126.1,135.7,126.1,134.4,126.4,133.1z M174.5,141.3c0,5.4-2.2,10.4-6.3,14l-38.4,33.4c-0.5,0.4-1,0.8-1.6,1.1l26-34.2
		c1.6-2.1,2.7-4.6,3.4-7.1c4.4-1.1,8.7-2.9,12.4-5.1c0.9-0.6,1.4-1.6,1.1-2.7c-0.2-1-1.1-1.8-2.2-1.9c-3.6-0.4-7.1-0.9-10.5-1.5
		v-1.2c6.1-2.7,12-5.9,16-9.6V141.3z M73.5,83.6c7-3.3,27.1-13.2,50.5-13.2c25,0,44.5,9.8,50.5,13.1v33.2
		c-1,5.4-13.1,12.7-28.5,17.7c-4.3-1.2-8.1-2.4-11.2-3.5c-2.3-3.7-7.9-13.7-9.4-22c-0.2-1.1-1.3-1.9-2.7-1.8c-1.3,0.1-2.3,1-2.3,2.2
		v18.2c-0.1,0-0.2,0-0.2,0.1c-0.1,0.1-8.1,3.6-20,6.9c-11.9-3.8-22.7-9.1-26.7-14.3V83.6z M73.5,140.1v-11.8c4,3.2,9.7,5.9,15,8.1
		v0.7c-3.5,0.7-7.3,1.2-11.1,1.6c-1.1,0.1-1.9,0.9-2.2,1.9c-0.2,1,0.2,2.1,1.1,2.7c3.7,2.3,7.9,4,12.4,5.1c0.6,2.6,1.8,5,3.4,7.2
		l26.2,34.4c-0.8-0.4-1.7-1-2.4-1.7l-36.6-34.9C75.7,150,73.5,145.1,73.5,140.1z"/>
	<path id="XMLID_107_" class="st0" d="M122.3,276.5c-27,0-51.8-9.3-71.2-25.3H37.5c22,21,51.9,34.3,84.8,34.3s62.8-13.3,84.8-34.3
		h-13.6C174,267.2,149.2,276.5,122.3,276.5z"/>
</g>
</svg>
